# xmcd
#
# Track frame offsets: 
#        150
#        14686
#        29233
#        54410
#        70812
#        86542
#        110659
#        127218
#        149064
#        167757
#
# Disc length: 2472 seconds
#
# Revision: 0
# Processed by: cddbd v1.5.2PL0 Copyright (c) Steve Scherf et al.
# Submitted via: ExactAudioCopy v0.99pb5
#
DISCID=9b09a60a
DTITLE=Johnny Charles - Stratified
DYEAR=2010
DGENRE=Blues
TTITLE0=Stinger
TTITLE1=Step on it
TTITLE2=Take it easy baby
TTITLE3=The King shuffle
TTITLE4=You move me
TTITLE5=The cat
TTITLE6=Texas Blues
TTITLE7=Yardbird stroll
TTITLE8=Metro City
TTITLE9=Stratified
EXTD=
EXTT0=
EXTT1=
EXTT2=
EXTT3=
EXTT4=
EXTT5=
EXTT6=
EXTT7=
EXTT8=
EXTT9=
PLAYORDER=
